<svg width="14" height="20" viewBox="0 0 14 20" fill="none" xmlns="http://www.w3.org/2000/svg">
<path d="M7.0456 20C8.89535 19.991 10.6663 19.1924 11.97 17.7791C13.2737 16.3659 14.0037 14.4536 13.9999 12.4615C13.9999 6.92306 7.69703 0.729218 7.42846 0.461525C7.32346 0.35947 7.18704 0.302979 7.0456 0.302979C6.90416 0.302979 6.76775 0.35947 6.66274 0.461525C6.39417 0.723064 0.0913234 6.92306 0.0913234 12.4615C0.0875219 14.4536 0.817527 16.3659 2.12122 17.7791C3.42491 19.1924 5.19585 19.991 7.0456 20ZM7.0456 1.77229C8.39703 3.19691 12.857 8.21537 12.857 12.4615C12.8742 13.2953 12.7365 14.1243 12.4521 14.9C12.1677 15.6757 11.7423 16.3824 11.2008 16.9785C10.6593 17.5747 10.0127 18.0484 9.29894 18.3719C8.58515 18.6953 7.81856 18.8619 7.04417 18.8619C6.26978 18.8619 5.5032 18.6953 4.78941 18.3719C4.07562 18.0484 3.42901 17.5747 2.88754 16.9785C2.34607 16.3824 1.92064 15.6757 1.63623 14.9C1.35182 14.1243 1.21416 13.2953 1.23132 12.4615C1.23132 8.21537 5.69132 3.19691 7.0456 1.77229Z" fill="black"/>
<path d="M7.04865 17.5386C8.29369 17.5288 9.48425 16.9875 10.359 16.0333C11.2338 15.0791 11.7212 13.7902 11.7144 12.4494C11.7144 12.4042 11.7144 12.3581 11.7144 12.3109C11.7059 12.2055 11.6749 12.1036 11.624 12.0131C11.573 11.9227 11.5034 11.846 11.4205 11.7892C11.3376 11.7324 11.2437 11.6969 11.146 11.6854C11.0483 11.674 10.9495 11.6869 10.8572 11.7232C10.3463 11.8561 9.82279 11.9242 9.29722 11.9263C7.20008 11.9232 6.19151 10.4617 4.90008 10.4617C3.60866 10.4617 2.32866 11.4278 2.32866 12.714C2.31723 15.5201 4.47723 17.5386 7.04865 17.5386Z" fill="black"/>
</svg>
