<svg width="20" height="20" viewBox="0 0 20 20" fill="none" xmlns="http://www.w3.org/2000/svg">
<path d="M10 0C4.375 0 0 4.375 0 10C0 16.5625 5.9375 19.375 6.875 19.375C7.5 19.375 7.5 19.0625 7.5 18.75V17.1875C5.3125 17.8125 4.375 16.5625 4.0625 15.625C4.0625 15.625 4.0625 15.3125 3.4375 14.6875C3.125 14.375 1.875 13.75 3.125 13.75C4.0625 13.75 4.6875 15 4.6875 15C5.625 16.25 6.875 15.9375 7.5 15.625C7.5 15 8.125 14.375 8.125 14.375C5.625 14.0625 3.75 13.125 3.75 9.6875C3.75 8.4375 4.0625 7.5 4.6875 6.875C4.6875 6.875 4.0625 5.625 4.6875 4.0625C4.6875 4.0625 6.25 4.0625 7.5 5.3125C8.4375 4.6875 11.5625 4.6875 12.5 5.3125C13.75 4.0625 15.3125 4.0625 15.3125 4.0625C15.9375 6.25 15.3125 6.875 15.3125 6.875C15.9375 7.5 16.25 8.4375 16.25 9.6875C16.25 13.125 14.0625 14.0625 11.875 14.375C12.1875 14.6875 12.5 15.3125 12.5 16.25V18.75C12.5 19.0625 12.5 19.375 13.125 19.375C14.0625 19.375 20 16.5625 20 10C20 4.375 15.625 0 10 0Z" fill="white"/>
</svg>
