<svg width="29" height="21" viewBox="0 0 29 21" fill="none" xmlns="http://www.w3.org/2000/svg">
<g clip-path="url(#clip0)">
<path d="M28.3001 9.31989L27.5089 8.77522C26.7786 8.23055 25.8657 7.95821 24.9528 7.95821C24.9224 7.95821 24.8919 7.95821 24.8615 7.95821L20.084 8.07925L19.0798 5.50721H19.4145C20.0535 5.50721 20.5708 4.9928 20.5708 4.35735C20.5708 3.7219 20.0535 3.20749 19.4145 3.20749H18.1669L17.2844 0.93804C17.0714 0.363112 16.5236 0 15.8846 0H14.1805C14.0892 0 14.0283 0.0302594 13.9675 0.0907782C13.9066 0.151297 13.9066 0.211815 13.9066 0.302593L15.276 8.26081L8.97693 8.7147L7.54671 6.26369C7.3337 5.93084 6.96854 5.71902 6.57295 5.71902H5.23402C5.14273 5.71902 5.08187 5.74928 5.021 5.8098C4.96014 5.87032 4.96014 5.9611 4.96014 6.02161L6.14692 10.5L4.99057 14.9784C4.96014 15.0692 4.99057 15.1297 5.05144 15.1902C5.1123 15.2507 5.17316 15.281 5.26445 15.281H6.60338C6.99897 15.281 7.36413 15.0692 7.57714 14.7363L9.03779 12.2853L15.3673 12.7392L13.9979 20.6974C13.9979 20.7882 13.9979 20.8487 14.0588 20.9092C14.1196 20.9697 14.1805 21 14.2718 21H15.9759C16.5845 21 17.1322 20.6369 17.3757 20.062L18.2582 17.7925H19.5058C20.1448 17.7925 20.6621 17.2781 20.6621 16.6427C20.6621 16.0072 20.1448 15.4928 19.5058 15.4928H19.1711L20.1753 12.9208L24.9528 13.0418C25.8961 13.072 26.8395 12.7695 27.6002 12.2248L28.3914 11.6801C28.787 11.4078 29 10.9842 29 10.5C28.9087 10.0159 28.6957 9.59222 28.3001 9.31989Z" fill="white"/>
<path d="M3.68207 12.1038H1.73454C1.46067 12.1038 1.21722 12.3458 1.21722 12.6182C1.21722 12.8905 1.46067 13.1326 1.73454 13.1326H3.68207C3.95594 13.1326 4.19939 12.8905 4.19939 12.6182C4.19939 12.3458 3.95594 12.1038 3.68207 12.1038Z" fill="white"/>
<path d="M4.19937 9.9856H0.517314C0.243442 9.9856 0 10.2277 0 10.5C0 10.7723 0.243442 11.0144 0.517314 11.0144H4.19937C4.47324 11.0144 4.71668 10.7723 4.71668 10.5C4.71668 10.2277 4.50367 9.9856 4.19937 9.9856Z" fill="white"/>
<path d="M1.73454 8.89625H3.68207C3.95594 8.89625 4.19939 8.65418 4.19939 8.38184C4.19939 8.10951 3.95594 7.86743 3.68207 7.86743H1.73454C1.46067 7.86743 1.21722 8.10951 1.21722 8.38184C1.21722 8.65418 1.46067 8.89625 1.73454 8.89625Z" fill="white"/>
</g>
<defs>
<clipPath id="clip0">
<rect width="29" height="21" fill="white"/>
</clipPath>
</defs>
</svg>
