<svg width="97" height="39" viewBox="0 0 97 39" fill="none" xmlns="http://www.w3.org/2000/svg">
<circle cx="19.5" cy="19.5" r="19.5" fill="#FF8660"/>
<path d="M47.5137 15.1191V16.6602H48.6328V17.7148H47.5137V21.2539C47.5137 21.4961 47.5605 21.6719 47.6543 21.7812C47.752 21.8867 47.9238 21.9395 48.1699 21.9395C48.334 21.9395 48.5 21.9199 48.668 21.8809V22.9824C48.3438 23.0723 48.0312 23.1172 47.7305 23.1172C46.6367 23.1172 46.0898 22.5137 46.0898 21.3066V17.7148H45.0469V16.6602H46.0898V15.1191H47.5137ZM53.2249 17.9609C53.0374 17.9297 52.8441 17.9141 52.6448 17.9141C51.9925 17.9141 51.553 18.1641 51.3265 18.6641V23H49.9027V16.6602H51.262L51.2972 17.3691C51.6409 16.8184 52.1175 16.543 52.7269 16.543C52.93 16.543 53.098 16.5703 53.2308 16.625L53.2249 17.9609ZM57.9166 23C57.8541 22.8789 57.7995 22.6816 57.7526 22.4082C57.2995 22.8809 56.7448 23.1172 56.0885 23.1172C55.4518 23.1172 54.9323 22.9355 54.5299 22.5723C54.1276 22.209 53.9264 21.7598 53.9264 21.2246C53.9264 20.5488 54.1764 20.0312 54.6764 19.6719C55.1803 19.3086 55.8991 19.127 56.8327 19.127H57.7057V18.7109C57.7057 18.3828 57.6139 18.1211 57.4303 17.9258C57.2467 17.7266 56.9674 17.627 56.5924 17.627C56.2682 17.627 56.0026 17.709 55.7955 17.873C55.5885 18.0332 55.485 18.2383 55.485 18.4883H54.0612C54.0612 18.1406 54.1764 17.8164 54.4069 17.5156C54.6373 17.2109 54.9498 16.9727 55.3444 16.8008C55.7428 16.6289 56.1862 16.543 56.6745 16.543C57.4166 16.543 58.0084 16.7305 58.4498 17.1055C58.8912 17.4766 59.1178 18 59.1295 18.6758V21.5352C59.1295 22.1055 59.2096 22.5605 59.3698 22.9004V23H57.9166ZM56.3522 21.9746C56.6334 21.9746 56.8971 21.9062 57.1432 21.7695C57.3932 21.6328 57.5807 21.4492 57.7057 21.2188V20.0234H56.9381C56.4108 20.0234 56.0143 20.1152 55.7487 20.2988C55.483 20.4824 55.3502 20.7422 55.3502 21.0781C55.3502 21.3516 55.4401 21.5703 55.6198 21.7344C55.8034 21.8945 56.0475 21.9746 56.3522 21.9746ZM62.9423 21.1953L64.2841 16.6602H65.7548L63.5576 23H62.3212L60.1064 16.6602H61.583L62.9423 21.1953ZM69.5384 23.1172C68.636 23.1172 67.9036 22.834 67.3411 22.2676C66.7825 21.6973 66.5032 20.9395 66.5032 19.9941V19.8184C66.5032 19.1855 66.6243 18.6211 66.8665 18.125C67.1126 17.625 67.4563 17.2363 67.8977 16.959C68.3391 16.6816 68.8313 16.543 69.3743 16.543C70.2376 16.543 70.9036 16.8184 71.3723 17.3691C71.845 17.9199 72.0813 18.6992 72.0813 19.707V20.2812H67.9387C67.9817 20.8047 68.1555 21.2188 68.4602 21.5234C68.7688 21.8281 69.1555 21.9805 69.6204 21.9805C70.2727 21.9805 70.804 21.7168 71.2141 21.1895L71.9817 21.9219C71.7278 22.3008 71.388 22.5957 70.9622 22.8066C70.5403 23.0137 70.0657 23.1172 69.5384 23.1172ZM69.3684 17.6855C68.9778 17.6855 68.6614 17.8223 68.4192 18.0957C68.1809 18.3691 68.0286 18.75 67.9622 19.2383H70.6751V19.1328C70.6438 18.6562 70.5169 18.2969 70.2942 18.0547C70.0716 17.8086 69.763 17.6855 69.3684 17.6855ZM74.8863 23H73.4625V14H74.8863V23ZM80.4101 23C80.3476 22.8789 80.2929 22.6816 80.246 22.4082C79.7929 22.8809 79.2382 23.1172 78.582 23.1172C77.9452 23.1172 77.4257 22.9355 77.0234 22.5723C76.621 22.209 76.4198 21.7598 76.4198 21.2246C76.4198 20.5488 76.6698 20.0312 77.1698 19.6719C77.6737 19.3086 78.3925 19.127 79.3261 19.127H80.1991V18.7109C80.1991 18.3828 80.1073 18.1211 79.9237 17.9258C79.7402 17.7266 79.4609 17.627 79.0859 17.627C78.7616 17.627 78.496 17.709 78.289 17.873C78.082 18.0332 77.9784 18.2383 77.9784 18.4883H76.5546C76.5546 18.1406 76.6698 17.8164 76.9003 17.5156C77.1308 17.2109 77.4433 16.9727 77.8378 16.8008C78.2362 16.6289 78.6796 16.543 79.1679 16.543C79.9101 16.543 80.5019 16.7305 80.9433 17.1055C81.3847 17.4766 81.6112 18 81.623 18.6758V21.5352C81.623 22.1055 81.703 22.5605 81.8632 22.9004V23H80.4101ZM78.8456 21.9746C79.1269 21.9746 79.3905 21.9062 79.6366 21.7695C79.8866 21.6328 80.0741 21.4492 80.1991 21.2188V20.0234H79.4316C78.9042 20.0234 78.5077 20.1152 78.2421 20.2988C77.9765 20.4824 77.8437 20.7422 77.8437 21.0781C77.8437 21.3516 77.9335 21.5703 78.1132 21.7344C78.2968 21.8945 78.5409 21.9746 78.8456 21.9746ZM88.8459 19.8945C88.8459 20.875 88.6233 21.6582 88.178 22.2441C87.7327 22.8262 87.135 23.1172 86.385 23.1172C85.6897 23.1172 85.133 22.8887 84.7151 22.4316V25.4375H83.2912V16.6602H84.6037L84.6623 17.3047C85.0803 16.7969 85.6487 16.543 86.3674 16.543C87.1409 16.543 87.7463 16.832 88.1838 17.4102C88.6252 17.9844 88.8459 18.7832 88.8459 19.8066V19.8945ZM87.428 19.7715C87.428 19.1387 87.301 18.6367 87.0471 18.2656C86.7971 17.8945 86.4377 17.709 85.969 17.709C85.387 17.709 84.969 17.9492 84.7151 18.4297V21.2422C84.9729 21.7344 85.3948 21.9805 85.9807 21.9805C86.4338 21.9805 86.7873 21.7988 87.0412 21.4355C87.2991 21.0684 87.428 20.5137 87.428 19.7715ZM95.7877 19.8945C95.7877 20.875 95.565 21.6582 95.1197 22.2441C94.6744 22.8262 94.0767 23.1172 93.3267 23.1172C92.6314 23.1172 92.0748 22.8887 91.6568 22.4316V25.4375H90.233V16.6602H91.5455L91.6041 17.3047C92.022 16.7969 92.5904 16.543 93.3091 16.543C94.0826 16.543 94.688 16.832 95.1255 17.4102C95.567 17.9844 95.7877 18.7832 95.7877 19.8066V19.8945ZM94.3697 19.7715C94.3697 19.1387 94.2427 18.6367 93.9888 18.2656C93.7388 17.8945 93.3795 17.709 92.9107 17.709C92.3287 17.709 91.9107 17.9492 91.6568 18.4297V21.2422C91.9146 21.7344 92.3365 21.9805 92.9224 21.9805C93.3755 21.9805 93.7291 21.7988 93.983 21.4355C94.2408 21.0684 94.3697 20.5137 94.3697 19.7715Z" fill="#FF8660"/>
<g clip-path="url(#clip0)">
<path d="M33.3002 18.3199L32.509 17.7752C31.7787 17.2305 30.8658 16.9582 29.9529 16.9582C29.9224 16.9582 29.892 16.9582 29.8616 16.9582L25.084 17.0793L24.0798 14.5072H24.4146C25.0536 14.5072 25.5709 13.9928 25.5709 13.3573C25.5709 12.7219 25.0536 12.2075 24.4146 12.2075H23.1669L22.2844 9.93804C22.0714 9.36311 21.5237 9 20.8847 9H19.1806C19.0893 9 19.0284 9.03026 18.9676 9.09078C18.9067 9.1513 18.9067 9.21182 18.9067 9.30259L20.276 17.2608L13.977 17.7147L12.5468 15.2637C12.3338 14.9308 11.9686 14.719 11.573 14.719H10.2341C10.1428 14.719 10.0819 14.7493 10.0211 14.8098C9.96021 14.8703 9.96021 14.9611 9.96021 15.0216L11.147 19.5L9.99064 23.9784C9.96021 24.0692 9.99064 24.1297 10.0515 24.1902C10.1124 24.2507 10.1732 24.281 10.2645 24.281H11.6034C11.999 24.281 12.3642 24.0692 12.5772 23.7363L14.0379 21.2853L20.3673 21.7392L18.998 29.6974C18.998 29.7882 18.998 29.8487 19.0588 29.9092C19.1197 29.9697 19.1806 30 19.2719 30H20.9759C21.5845 30 22.1323 29.6369 22.3757 29.062L23.2582 26.7925H24.5058C25.1449 26.7925 25.6622 26.2781 25.6622 25.6427C25.6622 25.0072 25.1449 24.4928 24.5058 24.4928H24.1711L25.1753 21.9208L29.9529 22.0418C30.8962 22.072 31.8395 21.7695 32.6003 21.2248L33.3915 20.6801C33.7871 20.4078 34.0001 19.9842 34.0001 19.5C33.9088 19.0159 33.6958 18.5922 33.3002 18.3199Z" fill="white"/>
<path d="M8.68213 21.1037H6.7346C6.46073 21.1037 6.21729 21.3458 6.21729 21.6181C6.21729 21.8905 6.46073 22.1325 6.7346 22.1325H8.68213C8.95601 22.1325 9.19945 21.8905 9.19945 21.6181C9.19945 21.3458 8.95601 21.1037 8.68213 21.1037Z" fill="white"/>
<path d="M9.19937 18.9856H5.51731C5.24344 18.9856 5 19.2277 5 19.5C5 19.7723 5.24344 20.0144 5.51731 20.0144H9.19937C9.47324 20.0144 9.71668 19.7723 9.71668 19.5C9.71668 19.2277 9.50367 18.9856 9.19937 18.9856Z" fill="white"/>
<path d="M6.7346 17.8963H8.68213C8.95601 17.8963 9.19945 17.6542 9.19945 17.3818C9.19945 17.1095 8.95601 16.8674 8.68213 16.8674H6.7346C6.46073 16.8674 6.21729 17.1095 6.21729 17.3818C6.21729 17.6542 6.46073 17.8963 6.7346 17.8963Z" fill="white"/>
</g>
<defs>
<clipPath id="clip0">
<rect width="29" height="21" fill="white" transform="translate(5 9)"/>
</clipPath>
</defs>
</svg>
