<svg width="65" height="24" viewBox="0 0 65 24" fill="none" xmlns="http://www.w3.org/2000/svg">
<g clip-path="url(#clip0)">
<path d="M33.5583 7.94927L36.6507 7.75054C36.7213 8.25322 36.8506 8.62731 37.0623 8.89618C37.4033 9.31703 37.8736 9.52745 38.4968 9.52745C38.9554 9.52745 39.3199 9.42224 39.5668 9.20013C39.802 9.02477 39.9431 8.74421 39.9431 8.45195C39.9431 8.17139 39.8137 7.90251 39.5903 7.72716C39.3551 7.51674 38.8025 7.30631 37.9324 7.11927C36.5096 6.80363 35.4866 6.38279 34.887 5.84504C34.2873 5.34236 33.9463 4.60587 33.9698 3.82263C33.9698 3.28488 34.1344 2.74713 34.4402 2.3029C34.7929 1.80022 35.275 1.40276 35.8512 1.18064C36.4743 0.911767 37.3445 0.771484 38.438 0.771484C39.7784 0.771484 40.8014 1.01698 41.5069 1.51966C42.2124 2.01065 42.6357 2.80558 42.765 3.89277L39.7079 4.06812C39.6256 3.60052 39.461 3.2615 39.1905 3.03939C38.9201 2.81727 38.5673 2.71206 38.1088 2.71206C37.7325 2.71206 37.4503 2.79389 37.2622 2.94586C37.0858 3.08615 36.9682 3.29657 36.98 3.53037C36.98 3.70573 37.074 3.86939 37.2151 3.9746C37.368 4.11488 37.7325 4.24348 38.3086 4.36038C39.7314 4.66432 40.7426 4.96827 41.3658 5.28391C41.989 5.59954 42.4358 5.98532 42.7063 6.44124C42.9885 6.90884 43.1296 7.44659 43.1178 7.99603C43.1178 8.65069 42.9297 9.30534 42.5534 9.85478C42.1654 10.4276 41.6245 10.8718 40.9895 11.1407C40.3193 11.433 39.4727 11.5849 38.4615 11.5849C36.6742 11.5849 35.4396 11.2459 34.7459 10.5562C34.0521 9.86647 33.6406 9.00139 33.5583 7.94927ZM0.740805 11.4096V0.958528H6.16139C7.16085 0.958528 7.9369 1.04036 8.46602 1.21571C8.98339 1.37938 9.44196 1.71839 9.74768 2.17431C10.0887 2.67699 10.2533 3.2615 10.2415 3.86939C10.2768 4.89813 9.74768 5.88011 8.84229 6.39448C8.48954 6.59321 8.10151 6.73349 7.70173 6.80363C7.99569 6.88546 8.28965 7.02575 8.54833 7.18941C8.74822 7.35307 8.91284 7.54012 9.0657 7.73885C9.24207 7.93758 9.39493 8.1597 9.52427 8.3935L11.0999 11.4213H7.40777L5.66754 8.20646C5.44413 7.7973 5.256 7.52843 5.07963 7.39983C4.84446 7.23617 4.56226 7.15434 4.28006 7.15434H3.99786V11.3979H0.740805V11.4096ZM3.99786 5.19038H5.37358C5.66754 5.167 5.94974 5.12024 6.23194 5.0501C6.44359 5.01503 6.63172 4.89813 6.76107 4.72278C7.07854 4.30193 7.03151 3.70573 6.64348 3.34333C6.43183 3.16798 6.02029 3.07446 5.43238 3.07446H3.99786V5.19038ZM3.05176e-05 20.3643L3.09247 20.1655C3.16302 20.6682 3.29236 21.0423 3.50401 21.3112C3.83324 21.732 4.31533 21.9541 4.93853 21.9541C5.3971 21.9541 5.76161 21.8489 6.00853 21.6268C6.2437 21.4398 6.3848 21.1709 6.3848 20.8786C6.3848 20.5981 6.25546 20.3292 6.03205 20.1539C5.79688 19.9434 5.24424 19.733 4.36237 19.546C2.93961 19.2303 1.91664 18.8095 1.31696 18.2717C0.717288 17.769 0.376297 17.0326 0.399813 16.2493C0.399813 15.7116 0.56443 15.1738 0.870146 14.7296C1.2229 14.2269 1.70499 13.8294 2.28115 13.6073C2.90434 13.3385 3.77445 13.1982 4.86798 13.1982C6.20843 13.1982 7.2314 13.4437 7.9369 13.9464C8.6424 14.449 9.05394 15.2323 9.18328 16.3195L6.12612 16.4948C6.04381 16.0272 5.87919 15.6882 5.60875 15.4661C5.35007 15.244 4.98556 15.1388 4.52698 15.1504C4.15072 15.1504 3.86852 15.2323 3.68039 15.3959C3.49225 15.5362 3.38643 15.7466 3.39819 15.9804C3.39819 16.1558 3.49225 16.3195 3.63335 16.4247C3.78621 16.565 4.15072 16.6936 4.72688 16.8105C6.14963 17.1144 7.16085 17.4183 7.78404 17.734C8.40723 18.0496 8.85405 18.4354 9.12449 18.8913C9.40669 19.3589 9.54779 19.8967 9.54779 20.4344C9.54779 21.0891 9.3479 21.732 8.98339 22.2815C8.59536 22.8543 8.05448 23.2985 7.41953 23.5674C6.74931 23.8596 5.90271 24.0116 4.89149 24.0116C3.10423 24.0116 1.8696 23.6726 1.17586 22.9829C0.482122 22.2815 0.0940971 21.4164 3.05176e-05 20.3643H3.05176e-05Z" fill="white"/>
<path d="M15.6386 19.546L18.4841 20.3994C18.3312 21.1125 18.0137 21.7905 17.5787 22.3867C17.1789 22.9128 16.6498 23.322 16.0501 23.5908C15.4387 23.8597 14.6626 24 13.722 24C12.5814 24 11.6407 23.8363 10.9235 23.509C10.1945 23.1817 9.57127 22.5972 9.04214 21.7672C8.51302 20.9372 8.25433 19.8734 8.25433 18.5757C8.25433 16.8456 8.71291 15.5129 9.64182 14.5894C10.5707 13.6659 11.8759 13.1982 13.5691 13.1982C14.8978 13.1982 15.9325 13.4671 16.6968 13.9932C17.4493 14.5309 18.0137 15.3492 18.39 16.4481L15.521 17.0794C15.4504 16.8339 15.3446 16.5884 15.2035 16.378C15.0271 16.1325 14.8037 15.9454 14.5333 15.8052C14.2628 15.6649 13.9571 15.6064 13.6514 15.6064C12.9106 15.6064 12.3462 15.8987 11.9582 16.4949C11.6642 16.9274 11.5114 17.6171 11.5114 18.5524C11.5114 19.7097 11.6878 20.5046 12.0405 20.9372C12.3933 21.3697 12.8871 21.5801 13.5338 21.5801C14.157 21.5801 14.6273 21.4048 14.9448 21.0658C15.2623 20.7034 15.4975 20.2007 15.6386 19.546ZM22.282 13.3736H25.5273V17.0326H29.0783V13.3736H32.3471V23.8246H29.0783V19.5928H25.5273V23.8246H22.282V13.3736Z" fill="white"/>
<path d="M31.9003 18.5991C31.9003 16.8923 32.3824 15.5596 33.3348 14.6127C34.2873 13.6658 35.6277 13.1865 37.3327 13.1865C39.0847 13.1865 40.4251 13.6541 41.3775 14.5893C42.33 15.5246 42.8003 16.8339 42.8003 18.5173C42.8003 19.7447 42.5886 20.7384 42.1771 21.5216C41.7773 22.2932 41.1541 22.9245 40.3898 23.3453C39.602 23.7779 38.6261 24 37.462 24C36.2744 24 35.2985 23.8129 34.5224 23.4388C33.7229 23.0414 33.0644 22.4218 32.6293 21.6619C32.1473 20.8436 31.9003 19.8266 31.9003 18.5991ZM35.1456 18.6108C35.1456 19.6629 35.3455 20.4228 35.7335 20.8904C36.1216 21.3463 36.6625 21.5801 37.3444 21.5801C38.0382 21.5801 38.5791 21.358 38.9671 20.9021C39.3551 20.4461 39.5432 19.6395 39.5432 18.4705C39.5432 17.4885 39.3434 16.7637 38.9436 16.3195C38.5438 15.8636 38.0029 15.6415 37.3209 15.6415C36.7212 15.6181 36.1451 15.8753 35.7453 16.3312C35.3455 16.7871 35.1456 17.547 35.1456 18.6108ZM46.1279 18.5991C46.1279 16.8923 46.61 15.5596 47.5624 14.6127C48.5148 13.6658 49.8553 13.1865 51.5602 13.1865C53.3122 13.1865 54.6644 13.6541 55.6051 14.5893C56.5458 15.5246 57.0279 16.8339 57.0279 18.5173C57.0279 19.7447 56.8162 20.7384 56.4047 21.5216C56.0049 22.2932 55.3817 22.9245 54.6174 23.3453C53.8296 23.7779 52.8537 24 51.6896 24C50.502 24 49.5261 23.8129 48.75 23.4388C47.9504 23.0414 47.292 22.4218 46.8569 21.6619C46.3748 20.8436 46.1279 19.8266 46.1279 18.5991ZM49.3732 18.6108C49.3732 19.6629 49.5731 20.4228 49.9611 20.8904C50.3491 21.3463 50.89 21.5801 51.572 21.5801C52.2657 21.5801 52.8066 21.358 53.1947 20.9021C53.5827 20.4461 53.7708 19.6395 53.7708 18.4705C53.7708 17.4885 53.5709 16.7637 53.1711 16.3195C52.7714 15.8636 52.2305 15.6415 51.5485 15.6415C50.9488 15.6181 50.3609 15.8753 49.9729 16.3312C49.5731 16.7871 49.3732 17.547 49.3732 18.6108Z" fill="white"/>
<path d="M56.687 13.3735H59.9323V21.2527H65.0001V23.8246H56.6752V13.3735H56.687Z" fill="white"/>
<path d="M53.0942 12.7719C56.3588 10.3204 57.3665 6.16599 55.345 3.49286C53.3235 0.819723 49.0383 0.640083 45.7737 3.09162C42.5092 5.54315 41.5014 9.69752 43.5229 12.3707C45.5444 15.0438 49.8296 15.2234 53.0942 12.7719Z" stroke="white" stroke-width="0.589315" stroke-miterlimit="10"/>
<path d="M53.0942 12.7719C56.3588 10.3204 57.3665 6.16599 55.345 3.49286C53.3235 0.819723 49.0383 0.640083 45.7737 3.09162C42.5092 5.54315 41.5014 9.69752 43.5229 12.3707C45.5444 15.0438 49.8296 15.2234 53.0942 12.7719Z" stroke="white" stroke-width="0.589315" stroke-miterlimit="10"/>
<path d="M46.1399 7.16598L47.3157 6.34766L48.762 8.39345C49.0089 8.72077 49.197 9.07148 49.3381 9.45726C49.4204 9.74951 49.3969 10.0651 49.2793 10.3457C49.1265 10.6964 48.8796 10.9887 48.5503 11.1991C48.1623 11.468 47.8331 11.6199 47.5509 11.6667C47.2804 11.7135 46.9982 11.6667 46.7395 11.5498C46.4573 11.4095 46.2104 11.2108 46.0223 10.9536L47.0335 10.0184C47.1158 10.147 47.2216 10.2639 47.3392 10.3574C47.4215 10.4159 47.5156 10.4509 47.6214 10.4509C47.7037 10.4509 47.786 10.4159 47.8448 10.3691C47.9624 10.299 48.0447 10.1587 48.033 10.0184C47.9977 9.81965 47.9154 9.62092 47.786 9.46895L46.1399 7.16598ZM49.6674 8.46359L50.7374 7.62189C50.855 7.76218 51.0078 7.86739 51.1724 7.92584C51.4076 7.99598 51.6545 7.94922 51.8544 7.79725C51.9955 7.70373 52.1131 7.57513 52.1601 7.41147C52.2307 7.20105 52.1131 6.96724 51.9014 6.8971C51.8662 6.88541 51.8309 6.87372 51.7956 6.87372C51.6545 6.86203 51.4076 6.92048 51.0431 7.07245C50.4434 7.31795 49.9731 7.41147 49.6203 7.3764C49.2793 7.34133 48.9619 7.16598 48.7737 6.87372C48.6326 6.67499 48.5621 6.44118 48.5503 6.20738C48.5503 5.9385 48.6209 5.66963 48.7737 5.44752C48.9971 5.13188 49.2676 4.863 49.5968 4.65258C50.0907 4.31357 50.5257 4.1499 50.902 4.1499C51.2783 4.1499 51.631 4.32526 51.9602 4.68765L50.902 5.51766C50.6903 5.24878 50.2906 5.19033 50.0201 5.40075L49.9848 5.43583C49.8673 5.50597 49.7849 5.61118 49.7379 5.73977C49.7026 5.83329 49.7262 5.9385 49.7849 6.02034C49.832 6.07879 49.9025 6.12555 49.9848 6.12555C50.0789 6.13724 50.2435 6.09048 50.4787 5.98527C51.0666 5.73977 51.5134 5.59949 51.8191 5.55273C52.0778 5.50597 52.3483 5.52935 52.5952 5.63456C52.8186 5.72808 53.0067 5.89174 53.1361 6.09048C53.3007 6.32428 53.3948 6.60485 53.4065 6.8971C53.4183 7.20105 53.336 7.4933 53.1713 7.75049C52.9597 8.06612 52.6893 8.335 52.3718 8.54542C51.7251 8.98965 51.1959 9.17669 50.7726 9.10655C50.3141 9.03641 49.9378 8.80261 49.6674 8.46359Z" fill="white"/>
</g>
<defs>
<clipPath id="clip0">
<rect width="65" height="24" fill="white"/>
</clipPath>
</defs>
</svg>
